<svg width="135" height="30" viewBox="0 0 135 30" fill="none" xmlns="http://www.w3.org/2000/svg">
<path d="M73.3447 6H76.9819L84.15 24H80.6456L78.9863 19.5464H71.2872L69.6677 24H66.15L73.3447 6ZM78.0969 17.134L75.15 9.15L72.1898 17.134H78.0969Z" fill="#373738"/>
<path fill-rule="evenodd" clip-rule="evenodd" d="M58.2891 6C59.5906 6 60.7284 6.23214 61.7023 6.69643C62.6852 7.16071 63.4422 7.80357 63.9734 8.625C64.5047 9.44643 64.7703 10.375 64.7703 11.4107C64.7703 12.2768 64.6021 13.0491 64.2656 13.7277C63.938 14.3973 63.5471 14.868 62.9109 15.4286C62.1676 16.0835 61.1554 16.4543 60.229 16.662L65.025 24H61.425L56.925 16.9152H53.6805V24H50.4V6H58.2891ZM53.6805 14.5179H57.957C59.1081 14.5179 59.9979 14.2634 60.6266 13.7545C61.2552 13.2366 61.5695 12.4866 61.5695 11.5045C61.5695 10.5491 61.2596 9.82143 60.6398 9.32143C60.02 8.8125 59.1125 8.55804 57.9172 8.55804H53.6805V14.5179Z" fill="#373738"/>
<path d="M35.1 6H47.902V8.57143H38.3494V13.4359H46.9755V15.9676H38.3494V21.4551H48.15V24H35.1V6Z" fill="#373738"/>
<path d="M18.45 6H25.8861C27.9407 6 29.497 6.41973 30.5549 7.2592C31.6128 8.08984 32.1418 9.25184 32.1418 10.7452C32.1418 11.5935 31.9276 12.3358 31.4992 12.972C31.0708 13.6082 30.4762 14.1163 29.7156 14.4963C30.2839 14.6819 30.8041 14.9779 31.2762 15.3844C31.7571 15.782 32.1374 16.2725 32.4172 16.8557C32.7057 17.4389 32.85 18.0751 32.85 18.7644C32.85 19.7806 32.6096 20.6863 32.1287 21.4816C31.6566 22.268 30.9658 22.8866 30.0566 23.3373C29.156 23.7791 28.0806 24 26.8303 24H18.45V6ZM26.2795 21.4551C26.8653 21.4551 27.3986 21.349 27.8795 21.137C28.3691 20.9161 28.7538 20.6024 29.0336 20.1959C29.3221 19.7894 29.4664 19.3122 29.4664 18.7644C29.4664 18.2253 29.3352 17.7482 29.073 17.3328C28.8107 16.9175 28.4347 16.595 27.9451 16.3652C27.4555 16.1267 26.874 16.0074 26.2008 16.0074H21.7156V21.4551H26.2795ZM25.5713 13.4757C26.5505 13.4757 27.3243 13.2636 27.8926 12.8395C28.4697 12.4153 28.7582 11.7923 28.7582 10.9705C28.7582 10.2106 28.4959 9.62297 27.9713 9.20766C27.4555 8.78351 26.6861 8.57143 25.6631 8.57143H21.7156V13.4757H25.5713Z" fill="#373738"/>
<path d="M6.91418 16.8L0 6H3.80147L8.55 13.65L13.272 6H17.1L10.2123 16.8V24H6.91418V16.8Z" fill="#373738"/>
<path d="M86.4148 24V5.81818H92.283C93.5733 5.81818 94.6505 6.06676 95.5146 6.56392C96.3846 7.05516 97.0386 7.72396 97.4766 8.57031C97.9205 9.41667 98.1424 10.3696 98.1424 11.429C98.1424 12.4884 97.9234 13.4442 97.4854 14.2965C97.0475 15.1429 96.3964 15.8146 95.5323 16.3118C94.6682 16.803 93.594 17.0487 92.3097 17.0487H87.6932V15.5572H92.2653C93.2182 15.5572 94.0083 15.3796 94.6357 15.0245C95.263 14.6635 95.7306 14.1722 96.0384 13.5508C96.352 12.9293 96.5089 12.2221 96.5089 11.429C96.5089 10.6359 96.352 9.92862 96.0384 9.30717C95.7306 8.68572 95.2601 8.19744 94.6268 7.84233C93.9994 7.48722 93.2034 7.30966 92.2386 7.30966H88.0749V24H86.4148ZM102.04 24V5.81818H107.908C109.198 5.81818 110.275 6.05196 111.14 6.51953C112.01 6.98118 112.664 7.62334 113.102 8.44602C113.545 9.26278 113.767 10.2009 113.767 11.2603C113.767 12.3197 113.545 13.2549 113.102 14.0657C112.664 14.8765 112.013 15.5098 111.148 15.9656C110.284 16.4213 109.213 16.6491 107.935 16.6491H102.936V15.131H107.89C108.837 15.131 109.624 14.9742 110.252 14.6605C110.885 14.3468 111.356 13.9 111.663 13.32C111.977 12.7399 112.134 12.0534 112.134 11.2603C112.134 10.4672 111.977 9.77474 111.663 9.18288C111.35 8.58511 110.876 8.12346 110.243 7.79794C109.616 7.47242 108.822 7.30966 107.864 7.30966H103.7V24H102.04ZM110.056 15.7969L114.531 24H112.613L108.183 15.7969H110.056ZM132.717 14.9091C132.717 16.803 132.38 18.4513 131.705 19.854C131.03 21.2508 130.101 22.3339 128.917 23.1033C127.74 23.8668 126.384 24.2486 124.851 24.2486C123.318 24.2486 121.96 23.8668 120.776 23.1033C119.599 22.3339 118.672 21.2508 117.998 19.854C117.329 18.4513 116.994 16.803 116.994 14.9091C116.994 13.0152 117.329 11.3698 117.998 9.97301C118.672 8.57031 119.602 7.48722 120.785 6.72372C121.969 5.95431 123.324 5.5696 124.851 5.5696C126.384 5.5696 127.74 5.95431 128.917 6.72372C130.101 7.48722 131.03 8.57031 131.705 9.97301C132.38 11.3698 132.717 13.0152 132.717 14.9091ZM131.101 14.9091C131.101 13.2815 130.829 11.8877 130.285 10.7276C129.74 9.56167 128.997 8.67093 128.056 8.0554C127.115 7.43987 126.047 7.1321 124.851 7.1321C123.662 7.1321 122.596 7.43987 121.655 8.0554C120.714 8.67093 119.969 9.55871 119.418 10.7188C118.874 11.8788 118.601 13.2756 118.601 14.9091C118.601 16.5367 118.874 17.9305 119.418 19.0906C119.963 20.2506 120.705 21.1413 121.646 21.7628C122.588 22.3783 123.656 22.6861 124.851 22.6861C126.047 22.6861 127.115 22.3783 128.056 21.7628C129.003 21.1473 129.749 20.2595 130.294 19.0994C130.838 17.9335 131.107 16.5367 131.101 14.9091Z" fill="#1F6665"/>
</svg>
