<svg width="292" height="165" viewBox="0 0 292 165" fill="none" xmlns="http://www.w3.org/2000/svg">
<g clip-path="url(#clip0_2416_4372)">
<path d="M207.501 77.7771H84.501V50.5H207.501V77.7771ZM129.489 62.7484V62.6146H129.158C126.261 61.4809 125.328 60.5127 125.328 58.6529C125.328 58.3408 125.435 55.5796 129.148 55.5796C130.81 55.5796 132.022 56.1369 132.427 56.4299L133.061 56.5446L133.543 56.1369L134.102 54.9076C134.26 54.5764 134.144 54.1783 133.832 53.9777C132.993 53.4427 131.35 52.8662 129.238 52.8662C125.258 52.8662 122.371 55.4045 122.371 58.9013C122.371 61.9076 124.255 63.9554 128.28 65.3439C131.067 66.4268 132.054 67.5255 132.054 69.551C132.054 71.7707 130.399 73.1465 127.737 73.1465C126.251 73.1465 124.718 72.6879 123.528 71.8822L122.908 71.7803L122.435 72.1879L121.872 73.4236C121.728 73.7357 121.827 74.1115 122.104 74.3121C123.309 75.207 125.611 75.8535 127.579 75.8535C132.717 75.8535 135.019 72.6083 135.019 69.3885C135.019 65.6083 132.392 63.9427 129.489 62.742M112.951 53.2038H111.517C111.205 53.2038 110.925 53.3981 110.816 53.6911L103.193 74.551C103.11 74.7707 103.138 75.0223 103.277 75.2261C103.415 75.4236 103.643 75.5446 103.888 75.5446H105.421C105.743 75.5446 106.026 75.3439 106.122 75.051L108.543 68.2357H115.838L118.317 75.0541C118.423 75.3471 118.706 75.5414 119.017 75.5414H120.554C120.789 75.5414 121.008 75.4299 121.168 75.2197L121.252 74.5541L113.652 53.6943C113.542 53.4045 113.263 53.2102 112.951 53.2102M114.825 65.5318H109.546L111.784 59.4745C111.928 59.0287 112.067 58.6115 112.192 58.2134C112.317 58.621 112.462 59.0701 112.629 59.5573L114.825 65.5318ZM172.66 52.8694C166.664 52.8694 162.478 57.6943 162.478 64.5987C162.478 71.5032 166.564 75.8917 172.409 75.8917C177.46 75.8917 182.559 72.2675 182.559 64.1656C182.559 57.4108 178.579 52.8694 172.657 52.8694M179.537 64.258C179.537 68.5541 177.335 73.1815 172.502 73.1815C167.67 73.1815 165.497 68.8312 165.497 64.535C165.497 60.2389 167.68 55.5828 172.563 55.5828C177.142 55.5828 179.537 59.9459 179.537 64.258ZM104.129 64.7261V63.4873C104.129 63.0796 103.794 62.7516 103.386 62.7516H95.94V55.9268H104.132C104.543 55.9268 104.878 55.5955 104.878 55.1911V53.9522C104.878 53.5446 104.543 53.2134 104.132 53.2134H93.7281C93.3166 53.2134 92.9822 53.5446 92.9822 53.9522V74.8185C92.9822 75.2261 93.3166 75.5573 93.7281 75.5573H95.1942C95.6057 75.5573 95.94 75.2261 95.94 74.8185V65.465H103.386C103.794 65.465 104.129 65.1338 104.129 64.7261ZM152.872 53.2102H151.405C150.994 53.2102 150.66 53.5414 150.66 53.949V62.3726H140.519V53.949C140.519 53.5414 140.185 53.2102 139.777 53.2102H138.308C137.896 53.2102 137.562 53.5414 137.562 53.949V74.8153C137.562 75.2229 137.896 75.5541 138.308 75.5541H139.777C140.188 75.5541 140.519 75.2229 140.519 74.8153V65.121H150.66V74.8153C150.66 75.2229 150.994 75.5541 151.405 75.5541H152.872C153.283 75.5541 153.617 75.2229 153.617 74.8153V53.949C153.617 53.5414 153.283 53.2102 152.872 53.2102ZM200.422 53.2102H198.956C198.544 53.2102 198.21 53.5414 198.21 53.949V64.3185C198.21 66.4459 198.223 68.1465 198.284 69.7675C197.586 68.6019 196.789 67.3535 195.824 65.8631L187.603 53.5446C187.468 53.3344 187.234 53.207 186.983 53.207H185.575C185.163 53.207 184.832 53.5382 184.832 53.9459V74.8121C184.832 75.2197 185.166 75.551 185.575 75.551H187.012C187.423 75.551 187.758 75.2197 187.758 74.8121V64.2548C187.758 62.1624 187.745 60.4904 187.7 58.8885C188.446 60.1242 189.272 61.4045 190.159 62.7707L198.39 75.2102C198.525 75.4236 198.759 75.551 199.013 75.551H200.422C200.833 75.551 201.167 75.2197 201.167 74.8121V53.949C201.167 53.5414 200.833 53.2102 200.422 53.2102ZM159.472 53.2102H158.003C157.591 53.2102 157.26 53.5414 157.26 53.949V74.8153C157.26 75.2229 157.594 75.5541 158.003 75.5541H159.472C159.88 75.5541 160.215 75.2229 160.215 74.8153V53.949C160.215 53.5414 159.88 53.2102 159.472 53.2102ZM101.136 101.146H106.177V107.92C105.598 108.207 104.238 108.401 102.54 108.401C96.4802 108.401 92.2621 104.462 92.2621 97.7834C92.2621 90.7707 96.9174 87.3121 103.077 87.3121C106.665 87.3121 108.897 87.9395 110.691 88.707L112.243 82.8471C110.642 82.0796 107.395 81.2611 103.177 81.2611C92.455 81.2611 84.5493 87.4108 84.501 98.1688C84.4528 102.924 86.1021 107.153 89.1081 109.936C92.1142 112.818 96.4287 114.309 102.396 114.309C106.71 114.309 111.025 113.252 113.304 112.484V95.4331H101.136V101.15V101.146ZM133.472 81.0669C123.821 81.0669 117.567 88.3217 117.567 98.0223C117.567 107.723 123.239 114.497 132.938 114.497C142.638 114.497 148.988 108.064 148.988 97.4459C148.988 88.5127 143.509 81.0637 133.472 81.0637M133.327 108.685C128.383 108.685 125.374 104.22 125.374 97.8758C125.374 91.5318 128.283 86.879 133.279 86.879C138.275 86.879 141.182 91.8726 141.182 97.6879C141.182 103.981 138.32 108.688 133.327 108.688M161.25 81.5955H153.833V113.971H174.245V107.825H161.25V81.5987V81.5955ZM201.974 84.8153C198.824 82.4618 194.795 81.3567 188.59 81.3567C184.858 81.3567 181.318 81.5955 178.601 82.0318V113.828C180.443 114.07 183.157 114.309 186.989 114.309C193.394 114.309 198.628 112.965 202.071 110.131C205.222 107.487 207.501 103.217 207.501 97.0159C207.501 91.3025 205.366 87.3121 201.971 84.8153M188.587 108.589C187.668 108.589 186.648 108.589 186.018 108.446V87.2643C186.648 87.121 187.716 86.9745 189.362 86.9745C195.715 86.9745 199.692 90.5287 199.64 97.2548C199.64 104.987 195.278 108.637 188.587 108.589Z" fill="#505052"/>
</g>
<defs>
<clipPath id="clip0_2416_4372">
<rect width="123" height="64" fill="white" transform="translate(84.5 50.5)"/>
</clipPath>
</defs>
</svg>
