<svg width="292" height="165" viewBox="0 0 292 165" fill="none" xmlns="http://www.w3.org/2000/svg">
<g clip-path="url(#clip0_2416_4374)">
<path d="M199.858 91.1089C199.629 90.7147 199.318 90.6169 198.924 90.8126C198.661 91.0084 198.039 91.4025 197.055 91.9924C196.072 92.5823 195.022 93.1748 193.907 93.7647C192.792 94.3546 191.709 94.8646 190.661 95.2897C189.611 95.7173 188.857 95.8306 188.398 95.6348C187.938 95.4391 187.858 94.8955 188.151 94.012C188.447 93.1259 189.019 92.3866 189.873 91.7967C190.2 91.5339 190.249 91.2068 190.02 90.8126C189.791 90.4185 189.348 90.4855 188.692 91.0084C187.971 91.5339 187.101 92.1573 186.087 92.8786C185.07 93.5998 184.022 94.2747 182.939 94.8955C181.858 95.5189 180.825 96.0444 179.839 96.4695C178.856 96.8971 178.068 97.0439 177.479 96.9125C177.085 96.6498 177.036 96.2067 177.332 95.5833C177.626 94.9599 178.12 94.3031 178.807 93.6153C179.07 93.3525 179.356 93.1052 179.654 92.8657C180.115 92.6132 180.504 92.3866 180.825 92.1908C180.957 92.1908 181.054 92.0929 181.121 91.8945C181.127 91.8791 181.127 91.8662 181.132 91.8507C181.163 91.8327 181.191 91.8147 181.219 91.7967C182.136 91.2712 182.99 91.0084 183.778 91.0084C184.566 91.0084 185.106 91.1243 185.4 91.3536C185.696 91.5854 186.004 91.7967 186.334 91.9924C186.53 92.1238 186.743 92.1083 186.972 91.9435C187.201 91.7812 187.25 91.5983 187.119 91.4025C186.923 91.0084 186.512 90.6478 185.889 90.3206C185.266 89.9935 184.56 89.8286 183.775 89.8286C182.594 89.8286 181.415 90.1738 180.233 90.8616C179.636 91.2119 179.088 91.5854 178.591 91.9847C178.236 92.1599 177.85 92.3428 177.433 92.5334C176.352 93.0254 175.185 93.5535 173.94 94.1099C172.694 94.6689 171.432 95.1763 170.153 95.6348C168.874 96.0934 167.71 96.472 166.66 96.7657C165.61 97.0619 164.742 97.2088 164.052 97.2088C163.362 97.2088 162.987 96.9795 162.922 96.521C162.922 95.7327 163.267 94.9445 163.955 94.1588C164.642 93.3706 165.283 92.7163 165.872 92.1908C166.135 92.1908 166.135 91.928 165.872 91.4025C164.822 89.96 164.299 88.7132 164.299 87.6622L166.66 85.89C167.841 85.0373 168.727 84.365 169.316 83.873C169.906 83.381 170.694 82.7396 171.677 81.9539C172.529 81.2326 173.021 80.5603 173.152 79.9369C173.283 79.3135 173.118 78.9683 172.66 78.9039C172.071 78.8395 171.265 79.0018 170.251 79.3959C169.234 79.7901 168.235 80.331 167.252 81.0214C166.269 81.7117 165.383 82.5309 164.595 83.4814C163.81 84.4345 163.316 85.4366 163.121 86.4824L162.925 87.0749C161.875 87.7962 160.989 88.4041 160.268 88.8961C159.545 89.3881 158.907 89.8157 158.351 90.1764C157.792 90.537 157.318 90.8332 156.925 91.0625C156.613 91.2454 156.327 91.4412 156.057 91.6447C155.535 91.9229 154.924 92.2217 154.222 92.5385C153.141 93.0305 151.975 93.5586 150.729 94.115C149.483 94.674 148.221 95.1815 146.942 95.64C145.663 96.0985 144.499 96.4772 143.449 96.7708C142.399 97.0671 141.531 97.2139 140.841 97.2139C140.152 97.2139 139.776 96.9846 139.711 96.5261C139.711 95.7379 140.056 94.9496 140.744 94.164C141.434 93.3757 142.072 92.7214 142.664 92.1959C142.924 92.1959 142.924 91.9332 142.664 91.4077C141.614 89.9651 141.089 88.7184 141.089 87.6674L143.449 85.8951C144.631 85.0425 145.513 84.3701 146.106 83.8781C146.695 83.3861 147.483 82.7447 148.466 81.959C149.318 81.2378 149.81 80.5654 149.941 79.9421C150.072 79.3187 149.908 78.9735 149.449 78.9091C148.86 78.8447 148.054 79.007 147.037 79.4011C146.021 79.7952 145.022 80.3362 144.039 81.0265C143.055 81.7169 142.17 82.5361 141.382 83.4866C140.597 84.4397 140.105 85.4417 139.907 86.4876L139.711 87.0801C138.661 87.8013 137.776 88.4093 137.055 88.9013C136.332 89.3933 135.693 89.8209 135.137 90.1815C134.787 90.4082 134.473 90.6066 134.19 90.7791C134.043 90.7972 133.884 90.8745 133.711 91.0161C131.94 92.1985 129.84 93.3294 127.415 94.4113C124.987 95.4957 122.529 96.2016 120.037 96.5287C118.66 96.7245 117.445 96.5957 116.398 96.1346C115.36 95.6812 114.678 95.0037 114.346 94.0996C114.475 94.048 114.601 93.994 114.727 93.9424C115.015 93.8394 115.409 93.6848 115.906 93.4762C116.694 93.149 117.494 92.7549 118.315 92.2938C118.583 92.1444 118.83 91.9899 119.067 91.8301C119.412 91.6138 119.703 91.4077 119.937 91.2119C120.202 91.047 120.367 90.8796 120.431 90.7147C120.951 90.1764 121.18 89.6174 121.119 89.0455C121.052 88.4556 120.691 88.077 120.037 87.9147C119.381 87.7524 118.691 87.7344 117.97 87.8657C117.051 88.0641 116.132 88.5226 115.216 89.2439C114.297 89.9677 113.643 90.8204 113.249 91.8044C113.033 92.3067 112.904 92.7807 112.858 93.2237C112.536 93.3422 112.209 93.4582 111.872 93.5741C110.166 94.164 108.395 94.741 106.559 95.2974C104.721 95.8564 103.033 96.2325 101.493 96.4282C99.9515 96.624 98.6721 96.6421 97.6579 96.4772C96.6411 96.3149 96.098 95.8383 96.0337 95.0501C96.0337 94.5246 96.2319 93.8188 96.6257 92.9352C97.0195 92.0491 97.4443 91.3433 97.905 90.8178C100.397 89.571 102.788 88.1104 105.087 86.4361C107.38 84.7617 109.643 83.0075 111.875 81.1708C113.383 81.1708 114.858 81.2043 116.302 81.2687C117.744 81.3357 119.219 81.4335 120.73 81.5649C120.925 81.6319 121.155 81.6628 121.42 81.6628C121.945 81.6628 122.238 81.5649 122.305 81.3666C122.37 81.0394 122.238 80.7767 121.911 80.5783L121.322 80.38L113.453 79.7901C115.026 78.4119 116.305 77.1986 117.288 76.1477C118.272 75.0992 118.828 74.2131 118.961 73.4893C118.961 73.2935 118.879 73.0797 118.714 72.8504C118.55 72.6212 118.305 72.5052 117.978 72.5052C117.389 72.5052 116.567 72.786 115.52 73.3424C114.47 73.9014 113.37 74.5737 112.225 75.3594C111.077 76.1477 109.962 76.9514 108.881 77.7705C107.8 78.5922 106.963 79.2646 106.371 79.7875C103.815 79.7875 101.37 79.8364 99.0428 79.9343C96.7132 80.0322 94.6977 80.179 92.9936 80.3774C92.798 80.3774 92.6332 80.4109 92.502 80.4753C92.1622 80.6092 92 80.8385 92 81.1682C92 81.5623 92.2291 81.7272 92.6899 81.6602C93.1481 81.5958 93.4441 81.5623 93.5754 81.5623C95.1507 81.364 96.8857 81.2506 98.788 81.2172C100.69 81.1837 102.69 81.1682 104.788 81.1682C102.886 83.0075 101.295 84.6303 100.018 86.0394C98.7391 87.451 97.7068 88.7158 96.9192 89.8286L93.1815 91.995C92.919 92.2578 92.852 92.5205 92.9859 92.7832C92.9859 92.9146 93.0837 93.0151 93.2793 93.0795C93.4775 93.1465 93.6397 93.113 93.771 92.9816L95.542 92.1934L95.3438 92.3891C95.0143 92.9146 94.8032 93.4066 94.7054 93.8677C94.6076 94.3263 94.5587 94.7539 94.5587 95.148C94.5587 95.8718 94.7698 96.4437 95.1971 96.8713C95.6218 97.2989 96.1958 97.5771 96.9192 97.7085C98.165 98.1026 99.918 98.1026 102.181 97.7085C104.443 97.3144 106.755 96.7425 109.115 95.9852C110.467 95.5524 111.762 95.099 113.005 94.6251C113.195 95.1944 113.522 95.6992 113.983 96.132C114.539 96.6575 115.213 97.0671 115.999 97.3633C116.786 97.6595 117.638 97.8064 118.557 97.8064C119.934 97.8064 121.36 97.6261 122.835 97.2654C124.31 96.9048 125.752 96.4463 127.163 95.8873C128.571 95.3309 129.917 94.7075 131.196 94.0171C131.847 93.6668 132.45 93.3216 133.006 92.979C133.07 92.9816 133.137 92.9842 133.212 92.9842C133.801 92.59 134.622 92.0671 135.67 91.4077C136.72 90.7534 138.131 89.8338 139.899 88.6514C140.098 89.2413 140.244 89.7333 140.342 90.1274C140.44 90.5216 140.687 91.0136 141.081 91.6035V91.8018C140.162 92.7858 139.41 93.8188 138.818 94.9033C138.229 95.9877 138.195 96.9202 138.72 97.7085C139.31 98.4323 140.473 98.6616 142.211 98.3989C143.948 98.1387 145.817 97.6286 147.817 96.8739C149.817 96.1191 151.735 95.2845 153.571 94.3649C154.621 93.8394 155.504 93.3809 156.235 92.9842C156.294 92.9842 156.356 92.9867 156.423 92.9867C156.757 92.7626 157.167 92.4973 157.648 92.1908C157.705 92.1805 157.753 92.1496 157.797 92.0955C158.127 91.8868 158.487 91.6576 158.881 91.4128C159.929 90.7585 161.339 89.8389 163.11 88.6565C163.306 89.2464 163.455 89.7385 163.553 90.1326C163.651 90.5267 163.898 91.0187 164.292 91.6086V91.807C163.373 92.791 162.619 93.8239 162.029 94.9084C161.44 95.9929 161.406 96.9254 161.931 97.7136C162.521 98.4375 163.684 98.6668 165.424 98.404C167.162 98.1438 169.031 97.6338 171.031 96.879C172.861 96.1887 174.619 95.4262 176.315 94.5967C176.071 95.0552 175.901 95.5215 175.803 95.9929C175.608 96.9434 175.901 97.6493 176.689 98.1104C177.083 98.3731 177.706 98.3911 178.558 98.1593C179.41 97.93 180.359 97.5848 181.41 97.1263C182.457 96.6678 183.474 96.1269 184.46 95.5009C185.443 94.8775 186.295 94.3031 187.016 93.7776C186.687 94.3675 186.604 94.9934 186.769 95.6477C186.931 96.3046 187.374 96.7296 188.097 96.928C188.818 97.1238 189.752 97.0259 190.9 96.6317C192.046 96.2376 193.197 95.7456 194.345 95.1557C195.49 94.5658 196.558 93.9579 197.542 93.3345C198.525 92.7111 199.246 92.2681 199.707 92.0053C200.033 91.8095 200.082 91.5133 199.853 91.1192M167.687 82.2604C169.162 81.145 170.555 80.4547 171.867 80.1919C171.144 80.7174 170.49 81.194 169.901 81.619C169.311 82.0466 168.753 82.4716 168.228 82.8993C167.702 83.3269 167.146 83.7545 166.554 84.1795C165.965 84.6071 165.339 85.1146 164.686 85.7071C165.211 84.5247 166.209 83.3784 167.687 82.2604ZM144.474 82.2604C145.949 81.145 147.341 80.4547 148.654 80.1919C147.931 80.7174 147.277 81.194 146.687 81.619C146.098 82.0466 145.539 82.4716 145.014 82.8993C144.489 83.3269 143.933 83.7545 143.344 84.1795C142.754 84.6071 142.129 85.1146 141.475 85.7071C142 84.5247 142.999 83.3784 144.476 82.2604M113.195 76.2069C114.67 75.3208 115.867 74.6819 116.786 74.2878L117.376 74.092C116.851 74.8159 116.047 75.702 114.966 76.7504C113.885 77.8014 112.786 78.8164 111.671 79.803H108.129C110.029 78.2934 111.72 77.0956 113.195 76.2095M104.194 83.5433C105.308 82.4948 106.16 81.7066 106.75 81.1811H110.094C108.781 82.1651 107.241 83.265 105.47 84.4783C103.699 85.6942 101.666 87.0878 99.3723 88.6617C101.47 86.2995 103.076 84.5942 104.191 83.5433M116.289 90.0888C117.404 89.1383 118.552 88.7931 119.734 89.0558C119.734 89.4499 119.487 89.8595 118.995 90.2871C118.884 90.385 118.766 90.4778 118.647 90.5705C118.107 90.9054 117.358 91.3021 116.39 91.7632C115.733 92.0749 115.028 92.384 114.276 92.6854C114.65 91.7838 115.322 90.9182 116.292 90.0888" fill="#505052"/>
<path d="M113.749 133.221C112.294 134.869 110.377 135.694 108.003 135.694C105.63 135.694 103.723 134.697 102.608 132.703C101.493 130.709 100.935 127.474 100.935 122.994C100.935 118.994 101.421 116.049 102.394 114.164C103.367 112.278 104.886 111.333 106.948 111.333C109.193 111.333 111.108 112.234 112.693 114.038C114.282 115.841 115.355 118.342 115.914 121.541H116.683V110.563H115.806C115.628 111.673 115.409 112.515 115.152 113.087C114.894 113.661 114.611 113.947 114.302 113.947C114.016 113.947 113.579 113.674 112.995 113.123C112.768 112.92 112.596 112.765 112.477 112.657C111.689 112 110.848 111.487 109.955 111.116C109.059 110.745 108.199 110.563 107.378 110.563C105.97 110.563 104.642 110.903 103.396 111.583C102.147 112.263 100.971 113.278 99.8614 114.627C98.824 115.918 98.0209 117.33 97.4546 118.862C96.8883 120.398 96.6051 121.946 96.6051 123.512C96.6051 125.483 97.0221 127.389 97.8587 129.236C98.6927 131.08 99.864 132.672 101.367 134.009C102.333 134.857 103.342 135.485 104.392 135.889C105.442 136.294 106.588 136.497 107.828 136.497C110.526 136.497 112.673 135.616 114.271 133.854C115.87 132.093 116.753 129.635 116.92 126.485H116.114C115.996 129.326 115.208 131.572 113.751 133.218" fill="#505052"/>
<path d="M137.269 112.801C136.386 112.049 135.433 111.482 134.414 111.101C133.395 110.72 132.316 110.527 131.183 110.527C129.811 110.527 128.532 110.802 127.343 111.351C126.156 111.899 125.036 112.737 123.986 113.857C122.709 115.23 121.726 116.755 121.034 118.435C120.341 120.112 119.996 121.804 119.996 123.512C119.996 125.732 120.562 127.904 121.695 130.024C122.828 132.144 124.303 133.787 126.115 134.957C126.89 135.472 127.706 135.856 128.558 136.114C129.41 136.371 130.285 136.497 131.181 136.497C132.29 136.497 133.364 136.304 134.401 135.915C135.438 135.526 136.393 134.962 137.266 134.223C138.852 132.863 140.095 131.235 140.996 129.341C141.897 127.448 142.347 125.506 142.347 123.512C142.347 121.518 141.897 119.602 140.996 117.69C140.095 115.779 138.852 114.148 137.266 112.799M136.432 132.93C135.364 134.792 133.613 135.725 131.178 135.725C128.743 135.725 126.998 134.797 125.942 132.94C124.887 131.083 124.357 127.94 124.357 123.509C124.357 119.079 124.884 115.936 125.942 114.079C126.998 112.221 128.743 111.292 131.178 111.292C133.613 111.292 135.364 112.224 136.432 114.086C137.5 115.949 138.033 119.089 138.033 123.509C138.033 127.93 137.498 131.067 136.432 132.93Z" fill="#505052"/>
<path d="M162.613 133.221C161.156 134.869 159.241 135.694 156.868 135.694C154.495 135.694 152.587 134.697 151.473 132.703C150.358 130.709 149.799 127.474 149.799 122.994C149.799 118.994 150.286 116.049 151.259 114.164C152.232 112.278 153.751 111.333 155.815 111.333C158.057 111.333 159.972 112.234 161.561 114.038C163.149 115.841 164.222 118.342 164.783 121.541H165.553V110.563H164.675C164.495 111.673 164.279 112.515 164.021 113.087C163.764 113.661 163.481 113.947 163.172 113.947C162.886 113.947 162.451 113.674 161.867 113.123C161.64 112.92 161.468 112.765 161.347 112.657C160.559 112 159.718 111.487 158.824 111.116C157.928 110.745 157.071 110.563 156.248 110.563C154.84 110.563 153.511 110.903 152.265 111.583C151.02 112.263 149.841 113.278 148.731 114.627C147.694 115.918 146.891 117.33 146.324 118.862C145.758 120.398 145.475 121.946 145.475 123.512C145.475 125.483 145.892 127.389 146.728 129.236C147.562 131.08 148.734 132.672 150.237 134.009C151.205 134.857 152.211 135.485 153.262 135.889C154.312 136.294 155.457 136.497 156.698 136.497C159.396 136.497 161.543 135.616 163.141 133.854C164.74 132.093 165.623 129.635 165.79 126.485H164.984C164.866 129.326 164.078 131.572 162.621 133.218" fill="#505052"/>
<path d="M186.131 112.801C185.248 112.049 184.295 111.482 183.276 111.101C182.257 110.72 181.181 110.527 180.045 110.527C178.673 110.527 177.394 110.802 176.207 111.351C175.021 111.899 173.901 112.737 172.851 113.857C171.574 115.23 170.588 116.755 169.898 118.435C169.206 120.112 168.861 121.804 168.861 123.512C168.861 125.732 169.427 127.904 170.562 130.024C171.695 132.144 173.17 133.787 174.982 134.957C175.757 135.472 176.57 135.856 177.425 136.114C178.277 136.371 179.152 136.497 180.048 136.497C181.157 136.497 182.231 136.304 183.271 135.915C184.308 135.526 185.263 134.962 186.136 134.223C187.724 132.863 188.967 131.235 189.868 129.341C190.769 127.448 191.22 125.506 191.22 123.512C191.22 121.518 190.769 119.602 189.868 117.69C188.967 115.779 187.724 114.148 186.136 112.799M185.304 132.93C184.236 134.792 182.486 135.725 180.051 135.725C177.615 135.725 175.873 134.797 174.815 132.94C173.759 131.083 173.232 127.94 173.232 123.509C173.232 119.079 173.759 115.936 174.815 114.079C175.873 112.221 177.615 111.292 180.051 111.292C182.486 111.292 184.236 112.224 185.304 114.086C186.373 115.949 186.905 119.089 186.905 123.509C186.905 127.93 186.373 131.067 185.304 132.93Z" fill="#505052"/>
<path d="M136.525 103.705C136.525 103.507 136.365 103.345 136.164 103.345H93.874C93.6758 103.345 93.5136 103.504 93.5136 103.705C93.5136 103.906 93.6758 104.063 93.874 104.063H136.164C136.362 104.063 136.525 103.901 136.525 103.705Z" fill="#505052"/>
<path d="M191.204 103.345H148.914C148.716 103.345 148.556 103.504 148.556 103.705C148.556 103.906 148.716 104.063 148.914 104.063H191.204C191.402 104.063 191.565 103.901 191.565 103.705C191.565 103.51 191.405 103.345 191.204 103.345Z" fill="#505052"/>
<path d="M141.526 100.908C141.367 100.789 141.14 100.828 141.024 100.988L137.395 105.995C137.279 106.158 137.312 106.382 137.474 106.498C137.539 106.544 137.613 106.567 137.686 106.567C137.796 106.567 137.907 106.516 137.976 106.418L141.606 101.41C141.722 101.25 141.686 101.024 141.526 100.908Z" fill="#505052"/>
<path d="M140.512 106.498C140.576 106.544 140.648 106.567 140.723 106.567C140.834 106.567 140.944 106.516 141.014 106.418L144.643 101.41C144.759 101.25 144.726 101.024 144.564 100.908C144.404 100.789 144.178 100.828 144.062 100.988L140.432 105.995C140.316 106.155 140.352 106.382 140.512 106.498Z" fill="#505052"/>
<path d="M147.604 100.908C147.444 100.789 147.218 100.828 147.102 100.988L143.472 105.995C143.356 106.158 143.392 106.382 143.552 106.498C143.616 106.544 143.691 106.567 143.763 106.567C143.874 106.567 143.984 106.516 144.054 106.418L147.683 101.41C147.799 101.25 147.763 101.024 147.604 100.908Z" fill="#505052"/>
<path d="M131.675 55.6326C131.675 62.1911 135.876 67.7551 141.73 69.8159C143.377 69.5892 145.133 69.4604 146.965 69.4604C148.662 69.4604 150.301 69.5661 151.841 69.7644C157.617 67.6624 161.748 62.1395 161.748 55.6352C161.748 47.3252 155.017 40.589 146.713 40.589C146.229 40.589 145.75 40.6173 145.277 40.6611C144.865 38.4741 144.239 35.62 143.575 34.3577C142.448 32.212 136.244 29.1749 135.011 28.5901C134.563 28.3763 134.025 28.567 133.814 29.0152C133.6 29.4634 133.791 30.0018 134.239 30.213C137.081 31.5654 141.359 34.0048 141.982 35.1923C142.507 36.197 143.084 38.7678 143.495 40.9419C136.736 42.4154 131.672 48.4302 131.672 55.6352M150.893 42.1732C155.074 43.6853 157.792 46.7146 157.792 46.7146C157.792 46.7146 156.067 47.6059 154.477 47.8996C153.573 46.5163 151.936 44.0846 150.989 43.1006C150.989 43.098 150.981 43.0928 150.978 43.0903C150.919 43.0284 150.857 42.964 150.803 42.9151C150.734 42.8533 150.649 42.7966 150.566 42.7425C150.677 42.5287 150.796 42.3226 150.893 42.1706M145.858 41.3386C146.955 41.3 147.995 41.4185 148.983 41.6297C148.837 41.7817 148.729 41.9543 148.659 42.1372C147.691 42.0084 146.579 42.0135 145.537 42.1088C145.498 41.8821 145.454 41.6426 145.408 41.3798C145.56 41.3695 145.704 41.3463 145.861 41.3412M143.627 41.6323C143.647 41.7559 143.67 41.8744 143.691 41.9903C143.598 41.8796 143.485 41.7791 143.351 41.6915C143.441 41.6683 143.534 41.6529 143.627 41.6323ZM143.158 44.3963C143.246 44.3551 143.351 44.3164 143.467 44.2778C144.275 44.4916 145.359 44.6255 146.559 44.6255C147.758 44.6255 148.824 44.4942 149.632 44.2829C150.178 44.8033 151.272 46.336 152.281 47.8378C151.318 47.7244 151.099 47.8919 149.194 48.2577C146.857 48.7059 145.266 49.252 143.575 48.456C142.108 47.7656 141.763 47.861 140.821 47.7347C141.699 46.0964 142.669 44.623 143.158 44.3963ZM141.415 42.3458C141.588 42.5132 141.796 42.7683 141.984 43.031C140.813 43.9326 139.534 46.251 138.803 47.7167C137.892 47.8429 136.862 47.9717 135.518 47.3148C135.518 47.3148 137.48 44.0537 141.415 42.3484" fill="#505052"/>
</g>
<defs>
<clipPath id="clip0_2416_4374">
<rect width="108" height="108" fill="white" transform="translate(92 28.5)"/>
</clipPath>
</defs>
</svg>
