<svg width="292" height="165" viewBox="0 0 292 165" fill="none" xmlns="http://www.w3.org/2000/svg">
<g clip-path="url(#clip0_2416_4370)">
<path d="M120.488 75.7682H120.327C122.54 75.283 124.363 73.1302 124.363 70.8295V69.8012C124.363 67.1021 120.926 64.9107 118.236 64.9107H106.736V64.9749C108.536 65.1452 109.061 66.1028 109.061 66.1028V87.111H119.315C122.668 87.111 125.387 84.383 125.387 81.0187V80.6909C125.387 77.9757 123.194 75.7715 120.484 75.7715M112.939 66.4755H116.926C119.258 66.4755 121.15 68.3713 121.15 70.7138V71.0962C121.15 73.1816 119.466 74.8717 117.388 74.8717H112.939V66.4755ZM121.916 81.3464C121.916 83.6279 120.074 85.4755 117.801 85.4755H112.936V76.2984H117.298C119.847 76.2984 121.916 78.3742 121.916 80.9319V81.3497V81.3464Z" fill="#505052"/>
<path d="M158.056 64.9107H141.755V64.9749C143.555 65.1452 144.08 66.1028 144.08 66.1028V87.111H158.056V85.7068H147.984V75.7522H154.719V74.348H147.984V66.3181H158.056V64.9107Z" fill="#505052"/>
<path d="M186.048 76.398L186.308 76.2952C189.882 75.1192 190.724 72.7381 190.724 70.4824V70.0872C190.724 67.3881 187.813 64.9107 184.652 64.9107H174.225V64.9749C176.025 65.1452 176.55 66.1028 176.55 66.1028V87.111H180.428V76.729H182.676L189.293 87.111H192.966L186.048 76.4012V76.398ZM180.425 66.2763H183.448C185.747 66.2763 187.297 68.3681 187.297 70.7074V71.0897C187.297 73.1751 185.299 75.5401 183.077 75.5401H180.425V66.2763Z" fill="#505052"/>
<path d="M217.823 66.2409C217.897 66.0289 217.862 65.6626 217.561 65.3509C217.26 65.036 215.137 65.0488 215.137 65.0488V64.9107H219.783L228.555 87.111H224.882L222.031 79.9069H213.897L210.935 87.111H209.324C209.324 87.111 217.747 66.453 217.82 66.2409M214.458 78.5027H221.554L218.032 69.7016L214.458 78.5027Z" fill="#505052"/>
<path d="M244.5 100.613H47.5V101.195H244.5V100.613Z" fill="#505052"/>
<path d="M113.141 110.465C113.141 110.95 113.071 111.381 112.926 111.753C112.782 112.126 112.59 112.435 112.347 112.679C112.103 112.923 111.828 113.106 111.517 113.232C111.207 113.357 110.883 113.418 110.541 113.418H109.17V117.759H107.886V107.618H110.448C110.752 107.618 111.066 107.663 111.386 107.753C111.706 107.843 111.995 108 112.254 108.219C112.51 108.437 112.725 108.733 112.891 109.099C113.058 109.466 113.141 109.922 113.141 110.468M111.857 110.484C111.857 109.874 111.716 109.427 111.431 109.144C111.146 108.862 110.778 108.723 110.323 108.723H109.173V112.348H110.323C110.778 112.348 111.146 112.194 111.431 111.882C111.716 111.573 111.857 111.108 111.857 110.487" fill="#505052"/>
<path d="M130.447 117.756L129.877 115.378H126.95L126.364 117.756H125.064L127.607 107.615H129.304L131.789 117.756H130.447ZM128.462 108.817H128.404L127.12 114.359H129.704L128.462 108.817Z" fill="#505052"/>
<path d="M149.146 117.756L147.433 113.228H146.264V117.756H145.009V107.615H147.628C148 107.615 148.352 107.666 148.682 107.766C149.012 107.865 149.3 108.026 149.55 108.245C149.797 108.463 149.992 108.752 150.136 109.103C150.28 109.456 150.351 109.88 150.351 110.378C150.351 110.789 150.296 111.146 150.19 111.451C150.085 111.757 149.947 112.017 149.777 112.232C149.608 112.447 149.425 112.618 149.223 112.74C149.022 112.865 148.826 112.946 148.637 112.984L150.536 117.753H149.15L149.146 117.756ZM149.06 110.43C149.06 110.086 149.012 109.803 148.916 109.581C148.82 109.36 148.698 109.183 148.544 109.048C148.391 108.913 148.218 108.82 148.016 108.768C147.817 108.717 147.616 108.691 147.417 108.691H146.261V112.229H147.446C147.933 112.229 148.32 112.075 148.615 111.763C148.909 111.451 149.057 111.008 149.057 110.433" fill="#505052"/>
<path d="M165.309 107.615H164.025V117.756H165.309V107.615Z" fill="#505052"/>
<path d="M184.098 115.063C184.098 115.523 184.028 115.934 183.884 116.303C183.74 116.67 183.547 116.978 183.304 117.229C183.061 117.476 182.772 117.669 182.439 117.801C182.106 117.936 181.748 118.003 181.37 118.003C180.857 118.003 180.367 117.894 179.906 117.682C179.445 117.467 179.077 117.181 178.801 116.83L179.557 115.899C179.775 116.185 180.05 116.409 180.38 116.573C180.707 116.734 181.04 116.818 181.373 116.818C181.802 116.818 182.154 116.673 182.43 116.387C182.705 116.101 182.843 115.683 182.843 115.14C182.843 114.883 182.801 114.655 182.715 114.459C182.628 114.263 182.51 114.086 182.359 113.929C182.206 113.771 182.033 113.627 181.837 113.498C181.642 113.37 181.431 113.248 181.203 113.132C180.928 113 180.668 112.846 180.425 112.682C180.182 112.515 179.967 112.322 179.775 112.1C179.586 111.882 179.435 111.622 179.327 111.32C179.218 111.018 179.163 110.664 179.163 110.253C179.163 109.768 179.24 109.34 179.391 108.977C179.541 108.614 179.746 108.312 179.996 108.074C180.249 107.836 180.537 107.66 180.86 107.544C181.184 107.428 181.514 107.374 181.844 107.374C182.33 107.374 182.766 107.454 183.15 107.618C183.535 107.779 183.855 108.023 184.114 108.347L183.342 109.263C182.981 108.784 182.494 108.547 181.885 108.547C181.703 108.547 181.527 108.579 181.35 108.64C181.174 108.701 181.014 108.8 180.873 108.942C180.729 109.08 180.617 109.254 180.531 109.466C180.444 109.678 180.403 109.928 180.403 110.224C180.403 110.481 180.444 110.703 180.524 110.889C180.604 111.075 180.713 111.243 180.851 111.39C180.989 111.538 181.149 111.673 181.328 111.792C181.511 111.911 181.703 112.023 181.914 112.129C182.18 112.264 182.443 112.415 182.699 112.582C182.955 112.75 183.189 112.949 183.397 113.177C183.605 113.405 183.775 113.678 183.903 113.987C184.031 114.298 184.095 114.658 184.095 115.07" fill="#505052"/>
<path d="M105.846 51.8295L105.865 51.7942C105.887 51.7556 105.913 51.7106 105.935 51.6721C106.089 51.4022 106.227 51.1579 106.358 50.9266L108.581 47H103.94L83.9057 83.1427C83.9057 83.1427 75.7106 68.3617 74.6505 66.4852C73.5905 64.6086 70.8716 64.5893 70.8716 64.5893H63.0608V64.7821C68.1143 65.3059 67.9958 66.2152 68.7676 67.3174C69.5394 68.4195 72.5465 73.6443 72.5465 73.6443L80.8377 88.9297L74.436 100.616H78.7177C78.7177 100.616 99.8572 62.4365 105.846 51.8295Z" fill="#505052"/>
</g>
<defs>
<clipPath id="clip0_2416_4370">
<rect width="197" height="71" fill="white" transform="translate(47.5 47)"/>
</clipPath>
</defs>
</svg>
