<svg width="292" height="165" viewBox="0 0 292 165" fill="none" xmlns="http://www.w3.org/2000/svg">
<g clip-path="url(#clip0_2416_4376)">
<path d="M112.724 50.447C114.999 48.7938 117.13 47.2307 119.275 45.6817C122.386 43.4286 125.494 41.1784 128.627 38.9534C128.982 38.7084 129.465 38.5197 129.888 38.5197C140.631 38.4972 151.38 38.4916 162.123 38.5253C162.594 38.5253 163.136 38.7619 163.531 39.0436C168.544 42.6344 173.538 46.2563 178.536 49.8753L179.273 50.4836C168.183 60.5634 157.144 70.5868 146.017 80.7032C134.932 70.629 123.879 60.5859 112.724 50.4498M134.817 51.0103C137.383 57.3893 139.838 63.5121 142.297 69.6264L142.48 69.5954C143.525 63.4783 144.575 57.364 145.661 51.0272C142.023 50.692 138.509 50.7315 134.814 51.0103M149.565 69.632L149.734 69.6405C152.198 63.5065 154.663 57.3724 157.214 51.0103C153.531 50.7315 150.002 50.6751 146.373 51.0497C147.462 57.395 148.512 63.5149 149.562 69.632M168.002 51.0187L167.455 50.8441C164.739 50.8385 162.024 50.799 159.314 50.861C158.49 50.8835 157.799 51.1624 157.412 52.165C155.284 57.64 153.059 63.0727 150.869 68.5168L150.646 69.2152L150.776 69.2856C156.489 63.2333 162.196 57.1753 168.002 51.0159M141.258 69.2885L141.41 69.204L141.091 68.3534C138.977 63.0925 136.863 57.8343 134.752 52.5762C134.145 51.0666 133.829 50.83 132.189 50.8216C129.823 50.8131 127.458 50.8159 125.096 50.8272C124.777 50.8328 124.458 50.9173 124 50.9877C129.838 57.1809 135.548 63.2333 141.261 69.2913M154.725 42.3443C151.775 41.2966 149.043 40.3109 146.296 39.3618L145.469 39.4378C142.997 40.3081 140.533 41.1924 138.066 42.074L137.38 42.395C140.318 44.8227 143.163 47.1716 146.017 49.5317C148.885 47.1631 151.73 44.8115 154.722 42.3415M146.02 79.2499C146.988 76.7152 147.928 74.3635 148.775 71.9865C148.986 71.3951 149.023 70.6882 148.944 70.0573C148.761 68.5618 148.459 67.0748 148.204 65.5849C147.49 61.4111 146.773 57.2401 146.014 52.8099C145.08 58.2596 144.182 63.4445 143.307 68.6294C143.155 69.5391 142.785 70.5643 143.042 71.3613C143.886 73.9861 144.967 76.5321 146.017 79.2499M166.086 54.2688L165.964 54.1477L165.713 54.373C161.352 58.9806 157.025 63.6332 152.605 68.1873C150.671 70.1812 149.046 72.2851 148.315 75.0169C148.024 76.104 147.521 77.1348 147.118 78.191C147.025 78.436 146.948 78.6923 146.776 79.1767C148.625 77.4841 150.299 75.9886 151.922 74.448C153.057 73.3722 154.31 72.3555 155.188 71.0937C157.288 68.0887 159.196 64.9597 161.183 61.8842C162.817 59.3467 164.449 56.812 166.083 54.2716M126.081 54.1364L125.959 54.2519L126.34 54.9109C129.454 59.7297 132.578 64.5373 135.678 69.3589C136.592 70.7839 137.45 72.2344 138.788 73.3271C139.418 73.8425 140.005 74.4142 140.609 74.9606C142.099 76.3068 143.589 77.6559 145.212 79.1204L144.925 78.2388C144.131 76.1463 143.35 74.0481 142.514 71.9753C142.316 71.4768 141.989 71.0036 141.622 70.6093C139.203 68.0042 136.759 65.416 134.317 62.8305C131.576 59.9297 128.824 57.0317 126.078 54.1364M123.842 49.4049C128.003 46.9519 132 44.5946 136.101 42.1782C135.043 41.3107 134.105 40.494 133.118 39.7505L132.149 39.5927C129.99 40.3729 127.842 41.1868 125.714 42.0514L125.045 42.8794C124.619 44.9833 124.26 47.0983 123.842 49.4021M155.919 42.1838C160.02 44.5974 164.028 46.9575 168.175 49.3965C167.754 47.0646 167.381 44.9241 166.958 42.7921L166.382 42.0768C164.192 41.2037 161.99 40.3757 159.78 39.5477L159.148 39.5083C158.089 40.3503 157.056 41.2319 155.916 42.1866M157.621 68.6407L157.773 68.7533C163.359 62.9009 168.942 57.0485 174.678 51.0356C174.048 50.9455 173.628 50.8385 173.21 50.83C172.663 50.8131 172.121 50.8159 171.576 50.8216C171.152 50.8216 170.738 50.8216 170.32 50.8159C169.467 50.8019 168.858 51.1201 168.372 51.8721C164.957 57.2091 161.508 62.5292 158.07 67.8521L157.621 68.6407ZM117.57 50.9145L117.494 51.2159C123.125 57.1077 128.757 62.9995 134.385 68.8942L134.057 68.0577C130.857 63.0925 127.675 58.1131 124.446 53.1648C122.885 50.7681 123.501 50.7821 120.148 50.8272C119.289 50.8357 118.429 50.8864 117.57 50.9173M146.72 49.7626C147.953 50.3991 155.775 50.34 157.158 49.7091C156.497 47.4448 155.834 45.172 155.148 42.8147C152.294 45.1663 149.525 47.4532 146.72 49.7626ZM134.783 49.9232C138.351 50.3653 141.769 50.2358 145.19 50.0386L145.258 49.7373C142.475 47.4448 139.697 45.1522 136.857 42.8147C136.166 45.1889 135.505 47.4391 134.783 49.9203M167.698 50.1119L167.726 49.8781C163.825 47.5799 159.927 45.2874 155.848 42.8851C156.435 44.91 156.96 46.7125 157.482 48.5234C157.872 49.8809 158.157 50.1034 159.597 50.1794L159.856 50.1851C162.193 50.1851 164.533 50.1851 166.865 50.1794L167.7 50.1119M124.119 49.9767L124.757 50.1738C127.328 50.1823 129.9 50.2104 132.465 50.1654C133.857 50.1428 134.148 49.8527 134.52 48.5544L134.811 47.5518C135.243 46.0619 135.669 44.5693 136.152 42.8851C132.059 45.2987 128.155 47.5997 124.116 49.9767M167.847 43.2484L167.853 43.9778C168.144 45.6648 168.477 47.349 168.736 49.0416C168.866 49.864 169.338 50.1738 170.091 50.1794C171.2 50.1879 172.307 50.202 173.416 50.171L174.277 49.9795C172.163 47.7686 170.046 45.555 167.847 43.2512M117.703 49.9598L118.005 50.0752C119.459 50.1062 120.912 50.1569 122.363 50.1147C122.835 50.1006 123.168 49.7654 123.235 49.2022C123.329 48.3657 123.515 47.5405 123.662 46.7125C123.854 45.6113 124.043 44.5129 124.238 43.4117L124.063 43.3301C121.94 45.5409 119.823 47.7546 117.709 49.957M114.056 50.8216C118.843 55.17 123.461 59.3636 128.079 63.5543L128.24 63.3741C124.582 59.541 120.912 55.7164 117.268 51.8749C116.433 50.9934 115.445 50.7146 114.056 50.8188M163.785 63.4107L163.938 63.5628C168.564 59.3552 173.19 55.1503 177.961 50.8075C176.499 50.7258 175.496 51.0638 174.644 51.9707C171.912 54.8771 169.129 57.7386 166.374 60.6253C165.499 61.5435 164.652 62.4841 163.785 63.4107ZM133.541 39.2351C134.54 40.0546 135.398 40.7024 136.189 41.4234C136.629 41.8318 137.004 41.8008 137.512 41.6121C139.42 40.9052 141.337 40.2377 143.248 39.5477L143.931 39.2351H133.544M158.507 39.221H148.267C150.511 40.1617 152.788 40.9812 155.075 41.7782L155.538 41.6487C156.48 40.8911 157.409 40.1222 158.507 39.221ZM177.817 50.1288C175.511 48.4671 173.411 46.9547 171.463 45.5437C172.482 46.6449 173.622 47.8391 174.726 49.0726C175.488 49.9288 176.425 50.2189 177.817 50.1288ZM114.378 50.0245L114.615 50.1513C115.651 50.202 116.546 49.9175 117.268 49.1205C118.392 47.8813 119.543 46.6703 120.656 45.4761C118.609 46.9632 116.512 48.4755 114.378 50.0245ZM131.105 39.2942C129.682 38.9394 128.709 39.4012 127.977 40.4884C128.98 40.1081 129.984 39.7223 131.105 39.2942ZM164.262 40.5531C163.227 39.2801 162.168 38.9196 161.084 39.3703C162.106 39.7505 163.094 40.1166 164.262 40.5531Z" fill="#505052"/>
<path d="M130.219 39.1759C129.259 39.1759 128.545 39.6406 127.975 40.4912C128.98 40.1053 129.982 39.7223 131.108 39.2914C130.789 39.2154 130.492 39.1759 130.219 39.1759ZM161.087 39.3674C162.106 39.7476 163.097 40.1138 164.265 40.5503C163.512 39.6294 162.744 39.1816 161.968 39.1816C161.677 39.1816 161.383 39.2435 161.087 39.3703M133.538 39.2351C134.537 40.0546 135.395 40.7024 136.186 41.4234C136.437 41.6571 136.671 41.7444 136.917 41.7444C137.1 41.7444 137.295 41.6966 137.515 41.6149C139.418 40.9024 141.337 40.2349 143.251 39.5477L143.934 39.2351H133.541M148.264 39.2266C150.511 40.1673 152.786 40.9812 155.075 41.7839L155.532 41.6487C156.478 40.8911 157.406 40.1222 158.507 39.2266H148.264ZM155.933 42.1866C160.034 44.6031 164.042 46.9632 168.189 49.4049C167.768 47.073 167.396 44.9269 166.969 42.795L166.396 42.0824C164.212 41.2093 162.007 40.3757 159.8 39.5533L159.168 39.5139C158.103 40.356 157.076 41.2319 155.936 42.1866M132.161 39.5927C130.001 40.3729 127.853 41.1924 125.725 42.0514L125.05 42.8851C124.624 44.9861 124.266 47.0983 123.848 49.4049C128.011 46.9547 132.011 44.6002 136.112 42.1838C135.054 41.3107 134.117 40.4968 133.123 39.7533L132.158 39.5956M137.371 42.4035C140.31 44.8312 143.155 47.1772 146.014 49.5373C148.882 47.1688 151.727 44.8171 154.719 42.35C151.769 41.2966 149.037 40.3166 146.291 39.3646L145.464 39.4463C142.991 40.3109 140.524 41.1981 138.06 42.0796L137.368 42.4063M117.712 49.9654L118.014 50.0809C119.064 50.1034 120.114 50.1344 121.164 50.1344C121.567 50.1344 121.968 50.1288 122.366 50.1175C122.837 50.1034 123.173 49.7683 123.238 49.205C123.337 48.3685 123.521 47.5433 123.665 46.7153C123.856 45.6169 124.051 44.5157 124.243 43.4145L124.063 43.3329C121.946 45.5437 119.826 47.7574 117.712 49.9654ZM171.449 45.555C172.471 46.6505 173.611 47.8475 174.712 49.0839C175.389 49.8415 176.211 50.1541 177.359 50.1541C177.503 50.1541 177.65 50.1513 177.808 50.14C175.502 48.4755 173.402 46.9603 171.449 45.555ZM114.367 50.033L114.601 50.1569C114.677 50.1625 114.748 50.1625 114.821 50.1625C115.764 50.1625 116.585 49.8725 117.254 49.1289C118.381 47.8897 119.535 46.6787 120.647 45.4874C118.601 46.9688 116.506 48.4868 114.37 50.033M155.851 42.8907C156.438 44.9157 156.969 46.7181 157.488 48.5291C157.878 49.8865 158.163 50.109 159.597 50.1907H162.975C164.274 50.1907 165.575 50.1907 166.871 50.1851L167.706 50.1175L167.729 49.8837C163.833 47.5912 159.935 45.2931 155.851 42.8907ZM167.856 43.2568L167.861 43.9835C168.152 45.6761 168.479 47.3546 168.745 49.0473C168.872 49.8725 169.34 50.1794 170.1 50.1851C170.678 50.1907 171.263 50.1992 171.841 50.1992C172.372 50.1992 172.897 50.1907 173.425 50.1766L174.286 49.9851C172.171 47.7771 170.054 45.5606 167.856 43.2596M124.122 49.9879L124.763 50.1794C126.29 50.1851 127.808 50.1963 129.335 50.1963C130.38 50.1963 131.427 50.1907 132.471 50.1738C133.857 50.1457 134.151 49.8556 134.52 48.5572L134.817 47.5546C135.249 46.0676 135.675 44.5777 136.155 42.8935C132.062 45.3015 128.158 47.6053 124.119 49.9851M146.728 49.7654C147.315 50.0668 149.404 50.2076 151.58 50.2076C153.96 50.2076 156.441 50.0386 157.166 49.7063C156.506 47.4419 155.843 45.1748 155.151 42.8118C152.3 45.1663 149.528 47.4504 146.728 49.7654ZM134.791 49.9232C136.55 50.1428 138.274 50.2245 139.979 50.2245C141.684 50.2245 143.462 50.14 145.193 50.0414L145.263 49.7401C142.48 47.4476 139.703 45.1607 136.863 42.8175C136.169 45.1917 135.511 47.4476 134.789 49.9232M114.056 50.8244C118.843 55.1757 123.458 59.3664 128.076 63.5572L128.243 63.3769C124.582 59.5495 120.91 55.7249 117.266 51.8777C116.543 51.1117 115.699 50.8019 114.578 50.8019C114.412 50.8019 114.237 50.8047 114.059 50.8188M163.788 63.4107L163.941 63.5628C168.567 59.3552 173.19 55.1503 177.963 50.8103C177.82 50.8019 177.681 50.7962 177.546 50.7962C176.304 50.7962 175.417 51.1511 174.647 51.9707C171.915 54.8771 169.131 57.7414 166.377 60.6253C165.502 61.5435 164.649 62.4841 163.788 63.4107ZM157.626 68.6463L157.773 68.7533C163.359 62.9009 168.948 57.0485 174.681 51.0413C174.054 50.9483 173.631 50.8441 173.21 50.83C172.883 50.8216 172.555 50.8159 172.228 50.8159C172.013 50.8159 171.793 50.8216 171.579 50.8216H170.949C170.743 50.8216 170.531 50.8216 170.325 50.8159H170.275C169.445 50.8159 168.852 51.1342 168.378 51.8721C164.962 57.2147 161.508 62.5292 158.07 67.8577L157.626 68.6463ZM117.5 51.2159C123.128 57.1077 128.759 62.9995 134.391 68.8942L134.063 68.0577C130.862 63.0925 127.678 58.1188 124.452 53.1648C123.077 51.061 123.382 50.8188 121.217 50.8188C120.912 50.8188 120.562 50.8244 120.153 50.8272C119.292 50.8357 118.434 50.8892 117.576 50.9201L117.5 51.2159ZM150.64 69.2152L150.77 69.2856C156.478 63.2333 162.191 57.1753 167.994 51.0187L167.452 50.8497C165.931 50.8441 164.409 50.8328 162.888 50.8328C161.694 50.8328 160.5 50.8385 159.306 50.8695C158.484 50.8864 157.793 51.1652 157.403 52.1734C155.281 57.6456 153.051 63.0756 150.861 68.5252L150.64 69.218M123.995 50.9906C129.832 57.1837 135.542 63.2361 141.25 69.2941L141.408 69.2096L141.083 68.3591C138.974 63.1009 136.855 57.8399 134.746 52.5846C134.139 51.0722 133.818 50.8328 132.183 50.83C131.142 50.8244 130.1 50.8216 129.059 50.8216C127.735 50.8216 126.411 50.8272 125.087 50.8357C124.768 50.8357 124.446 50.9258 123.992 50.9934M134.805 51.0159C137.374 57.4006 139.827 63.5177 142.283 69.632L142.466 69.6011C143.516 63.4839 144.56 57.3696 145.647 51.0328C143.86 50.8666 142.102 50.7962 140.338 50.7962C138.574 50.7962 136.68 50.8723 134.805 51.0159ZM146.364 51.0553C147.454 57.4006 148.504 63.5205 149.554 69.6405L149.72 69.6489C152.184 63.5149 154.649 57.3752 157.206 51.0131C155.34 50.8751 153.511 50.7878 151.69 50.7878C149.87 50.7878 148.154 50.8695 146.364 51.0525M125.951 54.2575L126.338 54.9166C129.451 59.7354 132.576 64.5429 135.678 69.3701C136.592 70.7896 137.45 72.24 138.788 73.3327C139.418 73.851 139.999 74.4199 140.606 74.9719C142.099 76.3153 143.589 77.6615 145.21 79.126L144.927 78.2445C144.134 76.1547 143.352 74.0537 142.514 71.9809C142.316 71.4852 141.989 71.0093 141.625 70.615C139.203 68.0098 136.762 65.4244 134.314 62.839C131.576 59.9381 128.827 57.0401 126.081 54.1449L125.956 54.2604M165.962 54.1561L165.71 54.3786C161.344 58.9918 157.022 63.6388 152.602 68.1957C150.669 70.1869 149.04 72.2879 148.309 75.0197C148.021 76.1069 147.519 77.1377 147.115 78.1938C147.022 78.4444 146.94 78.6951 146.773 79.1795C148.622 77.4869 150.29 75.997 151.922 74.4565C153.054 73.3778 154.304 72.3611 155.188 71.0994C157.282 68.1 159.196 64.971 161.177 61.8899C162.814 59.3552 164.449 56.8176 166.077 54.2773L165.962 54.1561ZM142.949 70.7332C142.949 70.9586 142.977 71.1726 143.039 71.3726C143.877 73.9974 144.964 76.5406 146.008 79.2612C146.982 76.7236 147.919 74.372 148.769 71.995C148.913 71.5866 148.975 71.1275 148.975 70.6741C148.975 70.4685 148.961 70.2657 148.938 70.0686C148.749 68.5675 148.453 67.0832 148.199 65.5906C147.482 61.4167 146.768 57.2485 146.008 52.8212C145.074 58.2652 144.177 63.4501 143.302 68.6407C143.186 69.3222 142.952 70.0658 142.946 70.7304M146.006 80.706C134.916 70.6319 123.868 60.5943 112.713 50.4555C114.988 48.7994 117.119 47.2392 119.258 45.6902C122.372 43.4371 125.482 41.1812 128.615 38.9591C128.965 38.7084 129.454 38.5197 129.877 38.5197C135.164 38.5084 140.437 38.5 145.709 38.5C150.982 38.5 156.65 38.5084 162.126 38.5225C162.597 38.5225 163.136 38.7591 163.531 39.0407C168.547 42.6316 173.543 46.2534 178.542 49.8725L179.279 50.4808C168.186 60.5606 157.152 70.584 146.023 80.7003" fill="#505052"/>
<path d="M78 87.9835H83.1598C84.7884 87.9835 86.1207 88.3045 87.1594 88.9551C88.4296 89.738 89.0675 91.0139 89.0675 92.7882C89.0675 93.9372 88.7175 94.9089 88.0203 95.7031C87.3881 96.4297 86.307 97.0071 84.7771 97.4323C85.6013 97.545 86.2929 97.7337 86.8546 97.9844C87.6054 98.3195 88.1925 98.8264 88.6328 99.4939C89.1946 100.344 89.4768 101.313 89.4768 102.395C89.4768 104.245 88.7542 105.676 87.309 106.701C86.2985 107.428 85.1159 107.788 83.761 107.788H78L78.1044 106.831V88.8988L78 87.9835ZM79.9476 97.0381H81.7513C83.2896 97.0381 84.5118 96.7733 85.4009 96.241C86.578 95.551 87.1594 94.3512 87.1594 92.6417C87.1594 90.1267 85.6888 88.8706 82.7392 88.8706H79.9476V97.0381ZM79.9476 106.802H83.0158C83.7695 106.802 84.3763 106.743 84.8251 106.622C85.2796 106.498 85.7001 106.279 86.0981 105.96C87.0776 105.203 87.5659 104.071 87.5659 102.55C87.5659 100.849 86.9957 99.5981 85.8526 98.7926C85.3106 98.4181 84.7517 98.1618 84.1872 98.0322C83.617 97.9027 82.8013 97.8351 81.7372 97.8351H79.9476V106.802Z" fill="#505052"/>
<path d="M102.503 107.791H93.4426L93.5442 106.904V88.9269L93.4426 87.9863H95.4918L95.3902 88.9269V106.805H101.673L102.503 106.701V107.791Z" fill="#505052"/>
<path d="M107.592 101.057L105.425 107.033L105.323 107.791H104.191L104.536 107.033L111.141 88.5946L111.27 87.9806H112.958L113.074 88.4763L119.922 107.031L120.331 107.788H118.093L117.932 107.031L115.75 101.054H107.592V101.057ZM107.841 100.26H115.403L111.547 89.9296L107.841 100.26Z" fill="#505052"/>
<path d="M135.223 88.5495V90.5238C134.396 89.8338 133.651 89.3607 132.993 89.0987C132.324 88.8396 131.534 88.7101 130.614 88.7101C128.059 88.7101 126.154 89.6423 124.884 91.5095C123.721 93.2022 123.14 95.3032 123.14 97.8097C123.14 100.477 123.811 102.662 125.158 104.366C126.527 106.098 128.367 106.963 130.687 106.963C131.624 106.963 132.429 106.811 133.092 106.501C133.755 106.191 134.467 105.636 135.223 104.845V106.805C134.407 107.27 133.651 107.594 132.962 107.777C132.274 107.96 131.441 108.056 130.481 108.056C127.622 108.056 125.384 107.222 123.763 105.558C121.982 103.73 121.087 101.13 121.087 97.7534C121.087 94.7709 121.861 92.4164 123.399 90.6843C125.155 88.7044 127.661 87.7103 130.922 87.7103C132.412 87.7103 133.849 87.9919 135.226 88.5524" fill="#505052"/>
<path d="M140.123 97.8801V106.862L140.228 107.788H138.176L138.28 106.862V88.91L138.176 87.9835H140.228L140.123 88.91V96.7339L147.276 88.4904L147.615 87.9835H148.964L148.295 88.5608L141.391 96.5734L150.333 107.061L151.072 107.788H148.371L147.99 107.14L140.123 97.8801Z" fill="#505052"/>
<path d="M160.283 87.9835H165.428C167.376 87.9835 169.078 88.3383 170.531 89.0452C172.123 89.8113 173.332 90.9181 174.153 92.3685C175.045 93.9457 175.494 95.7397 175.494 97.7506C175.494 99.984 174.971 101.947 173.936 103.628C173.419 104.462 172.733 105.208 171.872 105.876C171.006 106.543 170.077 107.039 169.078 107.371C168.217 107.65 167.158 107.791 165.897 107.791H160.283L160.387 106.847V88.9157L160.283 87.9835ZM162.23 106.659H165.767C167.751 106.659 169.352 106.141 170.565 105.104C171.457 104.344 172.112 103.451 172.527 102.437C173.142 100.956 173.447 99.3644 173.447 97.6633C173.447 95.1652 172.883 93.2585 171.759 91.932C170.122 89.9972 167.887 89.0311 165.056 89.0311H162.233V106.659H162.23Z" fill="#505052"/>
<path d="M179.445 87.9835H181.497L181.393 88.91V106.862L181.497 107.788H179.445L179.55 106.862V88.91L179.445 87.9835Z" fill="#505052"/>
<path d="M183.592 87.9835H185.655L185.858 88.7664L191.868 105.935L197.962 88.6509L198.148 87.9835H199.167L198.831 88.7664L192.404 107.05L192.229 107.788H190.575L190.324 107.05L183.981 88.9692L183.753 88.3721L183.592 87.9835Z" fill="#505052"/>
<path d="M201.261 101.057L199.094 107.033L198.989 107.791H197.857L198.205 107.033L204.81 88.5946L204.939 87.9806H206.627L206.743 88.4763L213.591 107.031L214 107.788H211.762L211.601 107.031L209.419 101.054H201.261V101.057ZM201.51 100.26H209.072L205.216 89.9296L201.51 100.26Z" fill="#505052"/>
<path d="M103.056 126.37H98.5431L98.5911 125.928V116.972L98.5431 116.502H99.5649L99.5113 116.972V125.88H102.644L103.056 125.83V126.37Z" fill="#505052"/>
<path d="M121.502 116.502L121.452 116.964V123.219C121.452 123.948 121.291 124.568 120.963 125.078C120.608 125.647 120.119 126.032 119.495 126.238C118.939 126.413 118.33 126.503 117.669 126.503C116.642 126.503 115.851 126.311 115.29 125.917C114.895 125.644 114.584 125.286 114.361 124.847C114.141 124.405 114.028 123.926 114.028 123.41V116.967L113.98 116.505H114.999L114.948 116.967V123.346C114.948 123.915 115.078 124.41 115.338 124.833C115.835 125.638 116.701 126.041 117.937 126.041C119.174 126.041 119.978 125.678 120.5 124.957C120.859 124.458 121.039 123.836 121.039 123.089V116.964L120.986 116.502H121.502Z" fill="#505052"/>
<path d="M135.726 121.405L133.118 116.899L132.841 116.502H133.93L134.136 116.899L136.268 120.549L138.458 116.899L138.684 116.502H139.212L138.958 116.899L136.488 120.921L139.451 125.976L139.697 126.37H138.602L138.404 125.976L135.951 121.825L133.422 125.976L133.213 126.37H132.669L132.931 125.976L135.726 121.405Z" fill="#505052"/>
<path d="M158.391 116.502L158.341 116.964V123.219C158.341 123.948 158.18 124.568 157.852 125.078C157.497 125.647 157.008 126.032 156.384 126.238C155.828 126.413 155.219 126.503 154.558 126.503C153.531 126.503 152.74 126.311 152.179 125.917C151.784 125.644 151.476 125.286 151.25 124.847C151.03 124.405 150.917 123.926 150.917 123.41V116.967L150.869 116.505H151.888L151.837 116.967V123.346C151.837 123.915 151.967 124.41 152.227 124.833C152.726 125.638 153.59 126.041 154.826 126.041C156.063 126.041 156.867 125.678 157.389 124.957C157.748 124.458 157.928 123.836 157.928 123.089V116.964L157.88 116.502H158.391Z" fill="#505052"/>
<path d="M171.734 121.673V125.909L171.782 126.373H170.763L170.811 125.909V116.967L170.763 116.502H172.922C173.54 116.502 174.088 116.609 174.565 116.815C175.008 117.003 175.369 117.285 175.632 117.659C175.923 118.071 176.072 118.547 176.072 119.073C176.072 119.856 175.807 120.465 175.268 120.91C174.734 121.349 173.95 121.602 172.919 121.67L176.786 126.021L177.218 126.37H175.796L175.519 125.973L171.731 121.67L171.734 121.673ZM172.725 121.295C173.233 121.295 173.693 121.18 174.111 120.941C174.785 120.552 175.124 119.946 175.124 119.132L174.89 118.113L174.243 117.355C173.854 117.082 173.298 116.944 172.578 116.944H171.731V121.295H172.725Z" fill="#505052"/>
<path d="M189.621 121.94L186.948 116.862L186.733 116.505H187.84L188.015 116.899L190.355 121.374L192.746 116.871L192.898 116.505H193.454L193.254 116.82L190.541 121.94V125.911L190.595 126.373H189.573L189.621 125.911V121.94Z" fill="#505052"/>
</g>
<defs>
<clipPath id="clip0_2416_4376">
<rect width="136" height="88" fill="white" transform="translate(78 38.5)"/>
</clipPath>
</defs>
</svg>
