<svg width="85" height="18" viewBox="0 0 85 18" fill="none" xmlns="http://www.w3.org/2000/svg">
<path d="M73.3447 0H76.9819L84.15 18H80.6456L78.9863 13.5464H71.2872L69.6677 18H66.15L73.3447 0ZM78.0969 11.134L75.15 3.15L72.1898 11.134H78.0969Z" fill="white"/>
<path fill-rule="evenodd" clip-rule="evenodd" d="M58.2891 0C59.5906 0 60.7284 0.232143 61.7023 0.696429C62.6852 1.16071 63.4422 1.80357 63.9734 2.625C64.5047 3.44643 64.7703 4.375 64.7703 5.41071C64.7703 6.27679 64.6021 7.04911 64.2656 7.72768C63.938 8.39732 63.5471 8.868 62.9109 9.42857C62.1676 10.0835 61.1554 10.4543 60.229 10.662L65.025 18H61.425L56.925 10.9152H53.6805V18H50.4V0H58.2891ZM53.6805 8.51786H57.957C59.1081 8.51786 59.9979 8.26339 60.6266 7.75446C61.2552 7.23661 61.5695 6.48661 61.5695 5.50446C61.5695 4.54911 61.2596 3.82143 60.6398 3.32143C60.02 2.8125 59.1125 2.55804 57.9172 2.55804H53.6805V8.51786Z" fill="white"/>
<path d="M35.1 0H47.902V2.57143H38.3494V7.43593H46.9755V9.9676H38.3494V15.4551H48.15V18H35.1V0Z" fill="white"/>
<path d="M18.45 0H25.8861C27.9407 0 29.497 0.419735 30.5549 1.2592C31.6128 2.08984 32.1418 3.25184 32.1418 4.74521C32.1418 5.59352 31.9276 6.33579 31.4992 6.97202C31.0708 7.60825 30.4762 8.11635 29.7156 8.49632C30.2839 8.68188 30.8041 8.97791 31.2762 9.38439C31.7571 9.78203 32.1374 10.2725 32.4172 10.8557C32.7057 11.4389 32.85 12.0751 32.85 12.7644C32.85 13.7806 32.6096 14.6863 32.1287 15.4816C31.6566 16.268 30.9658 16.8866 30.0566 17.3373C29.156 17.7791 28.0806 18 26.8303 18H18.45V0ZM26.2795 15.4551C26.8653 15.4551 27.3986 15.349 27.8795 15.137C28.3691 14.9161 28.7538 14.6024 29.0336 14.1959C29.3221 13.7894 29.4664 13.3122 29.4664 12.7644C29.4664 12.2253 29.3352 11.7482 29.073 11.3328C28.8107 10.9175 28.4347 10.595 27.9451 10.3652C27.4555 10.1267 26.874 10.0074 26.2008 10.0074H21.7156V15.4551H26.2795ZM25.5713 7.4757C26.5505 7.4757 27.3243 7.26362 27.8926 6.83947C28.4697 6.41532 28.7582 5.79234 28.7582 4.97054C28.7582 4.2106 28.4959 3.62297 27.9713 3.20766C27.4555 2.78351 26.6861 2.57143 25.6631 2.57143H21.7156V7.4757H25.5713Z" fill="white"/>
<path d="M6.91418 10.8L0 0H3.80147L8.55 7.65L13.272 0H17.1L10.2123 10.8V18H6.91418V10.8Z" fill="white"/>
</svg>
